# Blender v2.79 (sub 0) OBJ File: 'Mountains.blend'
# www.blender.org
g Cube.022_Cube.018
v -0.963491 0.000000 0.963491
v -0.963491 0.024131 0.963491
v -0.963491 0.000000 -0.963491
v -0.963491 0.024131 -0.963491
v 0.963491 0.000000 0.963491
v 0.963491 0.024131 0.963491
v 0.963491 0.000000 -0.963491
v 0.963491 0.024131 -0.963491
v -0.920081 0.052580 0.920081
v -0.920081 0.052580 -0.920081
v 0.920081 0.052580 -0.920081
v 0.920081 0.098641 0.920081
v -0.963491 0.000000 -0.481746
v -0.963491 0.000000 0.000000
v -0.963491 0.000000 0.481746
v -0.963491 0.024131 0.481746
v -0.963491 0.024131 0.000000
v -0.963491 0.024131 -0.481746
v 0.963491 0.000000 0.481746
v 0.963491 0.000000 0.000000
v 0.963491 0.000000 -0.481746
v 0.963491 0.024131 -0.481746
v 0.963491 0.024131 0.000000
v 0.963491 0.024131 0.481746
v -0.884146 0.141017 0.460040
v -0.920081 0.052580 -0.000000
v -0.920081 0.111447 -0.460040
v 0.920081 0.103640 -0.460040
v 0.920081 0.052580 0.000000
v 0.920081 0.085315 0.460040
v 0.481746 0.000000 -0.963491
v 0.000000 0.000000 -0.963491
v -0.481746 0.000000 -0.963491
v -0.481746 0.024131 -0.963491
v 0.000000 0.024131 -0.963491
v 0.481746 0.024131 -0.963491
v -0.481746 0.000000 0.963491
v 0.000000 0.000000 0.963491
v 0.481746 0.000000 0.963491
v 0.481746 0.024131 0.963491
v 0.000000 0.024131 0.963491
v -0.481746 0.024131 0.963491
v -0.460040 0.114832 -0.920081
v 0.000000 0.052580 -0.920081
v 0.460040 0.112838 -0.920081
v 0.460040 0.124962 0.920081
v -0.000000 0.094520 0.920081
v -0.460040 0.147992 0.920081
v -0.460040 0.314955 -0.460040
v 0.091146 1.335998 -0.460040
v 0.460040 0.288481 -0.460040
v -0.460040 0.277315 -0.000000
v 0.000000 0.176495 0.000000
v 0.460040 0.350234 0.000000
v -0.526317 1.225757 0.254449
v 0.000000 0.167408 0.460040
v 0.570005 0.909400 0.460040
v 0.481746 0.000000 -0.481746
v 0.000000 0.000000 -0.481746
v -0.481746 0.000000 -0.481746
v 0.481746 0.000000 0.000000
v 0.000000 0.000000 0.000000
v -0.481746 0.000000 0.000000
v 0.481746 0.000000 0.481746
v 0.000000 0.000000 0.481746
v -0.481746 0.000000 0.481746
vt 0.077459 0.321856
vt 0.074403 0.324920
vt 0.013372 0.263752
vt 0.016427 0.260703
vt 0.199502 0.077310
vt 0.196439 0.074252
vt 0.257644 0.013257
vt 0.260691 0.016314
vt 0.443769 0.199486
vt 0.446822 0.196430
vt 0.507834 0.257387
vt 0.504781 0.260443
vt 0.322050 0.443900
vt 0.325116 0.446960
vt 0.263809 0.507930
vt 0.260767 0.504872
vt 0.382789 0.260519
vt 0.443845 0.321481
vt 0.074340 0.196417
vt 0.013361 0.257650
vt 0.012261 0.245598
vt 0.064478 0.180830
vt 0.142630 0.660817
vt 0.026134 0.656241
vt 0.011295 0.532947
vt 0.135473 0.532150
vt 0.324909 0.074264
vt 0.263746 0.013251
vt 0.275802 0.012161
vt 0.339212 0.065640
vt 0.196611 0.446919
vt 0.257712 0.507932
vt 0.245652 0.509016
vt 0.175885 0.461969
vt 0.446902 0.324533
vt 0.507838 0.263495
vt 0.513272 0.279898
vt 0.458052 0.341177
vt 0.064929 0.340120
vt 0.012283 0.275805
vt 0.135655 0.385795
vt 0.129299 0.392573
vt 0.135646 0.385777
vt 0.128913 0.392182
vt 0.453562 0.184181
vt 0.513247 0.240976
vt 0.385818 0.135475
vt 0.392311 0.128830
vt 0.392564 0.129084
vt 0.149574 0.980003
vt 0.037773 0.984325
vt 0.035357 0.872572
vt 0.150604 0.861716
vt 0.022522 0.766210
vt 0.146775 0.754650
vt 0.321848 0.077322
vt 0.260681 0.138439
vt 0.382765 0.138531
vt 0.321737 0.199513
vt 0.199671 0.443861
vt 0.138704 0.382728
vt 0.199695 0.321681
vt 0.260805 0.382742
vt 0.260718 0.260584
vt 0.321804 0.321599
vt 0.138549 0.260640
vt 0.199637 0.199544
vt 0.077400 0.199478
vt 0.138597 0.138559
vt 0.481325 0.756092
vt 0.357529 0.751457
vt 0.365263 0.660430
vt 0.482600 0.653248
vt 0.250893 0.744352
vt 0.250038 0.647602
vt 0.471318 0.860418
vt 0.353421 0.857593
vt 0.253309 0.856948
vt 0.474100 0.973083
vt 0.361137 0.974253
vt 0.257485 0.989049
vt 0.344700 0.460603
vt 0.275851 0.509038
vt 0.385980 0.385552
vt 0.396567 0.395904
vt 0.396408 0.396043
vt 0.365610 0.535994
vt 0.482706 0.536293
vt 0.251820 0.532150
vt 0.181078 0.064616
vt 0.245592 0.012161
vt 0.135530 0.135509
vt 0.128745 0.129156
vt 0.135554 0.135502
vt 0.129211 0.128713
vt 0.382905 0.382504
vn -1.0000 0.0000 0.0000
vn 0.0000 0.0000 -1.0000
vn 1.0000 0.0000 0.0000
vn 0.0000 0.0000 1.0000
vn 0.0000 -1.0000 0.0000
vn -0.0398 0.6026 -0.7971
vn -0.6261 0.5330 0.5691
vn 0.7685 0.6389 -0.0346
vn -0.7563 0.6534 0.0325
vn 0.0125 0.4474 0.8942
vn -0.7890 0.6133 -0.0383
vn -0.8028 0.5951 0.0372
vn -0.7659 0.6422 -0.0311
vn 0.8440 0.5363 -0.0076
vn 0.7210 0.6925 -0.0241
vn 0.7821 0.6222 0.0337
vn -0.2679 0.9274 -0.2611
vn -0.4201 0.9025 0.0947
vn -0.7351 0.3699 -0.5681
vn 0.7327 0.5291 -0.4280
vn -0.6237 0.7015 -0.3449
vn 0.6762 0.4756 -0.5626
vn 0.4644 0.8856 -0.0103
vn 0.5411 0.5133 0.6661
vn -0.5014 0.5509 0.6672
vn 0.2504 0.9400 -0.2316
vn 0.5163 0.4335 -0.7386
vn -0.4624 0.4877 -0.7405
vn -0.0518 0.5112 0.8579
vn 0.0230 0.4058 0.9137
vn -0.0146 0.4507 0.8925
vn 0.6030 0.5745 0.5535
vn -0.4976 0.6635 0.5588
vn 0.5538 0.5984 0.5790
vn 0.0390 0.6088 -0.7923
vn -0.0378 0.5904 -0.8062
vn 0.0386 0.5839 -0.8109
s off
f 13/1/1 18/2/1 4/3/1 3/4/1
f 31/5/2 36/6/2 8/7/2 7/8/2
f 19/9/3 24/10/3 6/11/3 5/12/3
f 37/13/4 42/14/4 2/15/4 1/16/4
f 64/17/5 19/9/5 5/12/5 39/18/5
f 34/19/6 4/20/6 10/21/6 43/22/6
f 55/23/7 25/24/7 9/25/7 48/26/7
f 22/27/8 8/28/8 11/29/8 28/30/8
f 16/31/9 2/32/9 9/33/9 25/34/9
f 40/35/10 6/36/10 12/37/10 46/38/10
f 4/3/11 18/2/11 27/39/11 10/40/11
f 18/2/12 17/41/12 26/42/12 27/39/12
f 17/43/13 16/31/13 25/34/13 26/44/13
f 6/11/14 24/10/14 30/45/14 12/46/14
f 24/10/15 23/47/15 29/48/15 30/45/15
f 23/47/16 22/27/16 28/30/16 29/49/16
f 43/50/17 10/51/17 27/52/17 49/53/17
f 49/53/18 27/52/18 26/54/18 52/55/18
f 52/55/19 26/54/19 25/24/19 55/23/19
f 31/5/5 7/8/5 21/56/5 58/57/5
f 58/57/5 21/56/5 20/58/5 61/59/5
f 61/59/5 20/58/5 19/9/5 64/17/5
f 7/8/3 8/28/3 22/27/3 21/56/3
f 21/56/3 22/27/3 23/47/3 20/58/3
f 20/58/3 23/47/3 24/10/3 19/9/3
f 1/16/1 2/32/1 16/31/1 15/60/1
f 15/60/1 16/31/1 17/43/1 14/61/1
f 14/61/1 17/41/1 18/2/1 13/1/1
f 14/61/5 63/62/5 66/63/5 15/60/5
f 63/62/5 62/64/5 65/65/5 66/63/5
f 62/64/5 61/59/5 64/17/5 65/65/5
f 13/1/5 60/66/5 63/62/5 14/61/5
f 60/66/5 59/67/5 62/64/5 63/62/5
f 59/67/5 58/57/5 61/59/5 62/64/5
f 3/4/5 33/68/5 60/66/5 13/1/5
f 33/68/5 32/69/5 59/67/5 60/66/5
f 32/69/5 31/5/5 58/57/5 59/67/5
f 29/70/20 54/71/20 57/72/20 30/73/20
f 54/71/21 53/74/21 56/75/21 57/72/21
f 53/74/22 52/55/22 55/23/22 56/75/22
f 28/76/23 51/77/23 54/71/23 29/70/23
f 51/77/24 50/78/24 53/74/24 54/71/24
f 50/78/25 49/53/25 52/55/25 53/74/25
f 11/79/26 45/80/26 51/77/26 28/76/26
f 45/80/27 44/81/27 50/78/27 51/77/27
f 44/81/28 43/50/28 49/53/28 50/78/28
f 2/15/29 42/14/29 48/82/29 9/83/29
f 42/14/30 41/84/30 47/85/30 48/82/30
f 41/84/31 40/35/31 46/38/31 47/86/31
f 30/73/32 57/72/32 46/87/32 12/88/32
f 57/72/33 56/75/33 47/89/33 46/87/33
f 56/75/34 55/23/34 48/26/34 47/89/34
f 8/7/35 36/6/35 45/90/35 11/91/35
f 36/6/36 35/92/36 44/93/36 45/90/36
f 35/94/37 34/19/37 43/22/37 44/95/37
f 15/60/5 66/63/5 37/13/5 1/16/5
f 66/63/5 65/65/5 38/96/5 37/13/5
f 65/65/5 64/17/5 39/18/5 38/96/5
f 5/12/4 6/36/4 40/35/4 39/18/4
f 39/18/4 40/35/4 41/84/4 38/96/4
f 38/96/4 41/84/4 42/14/4 37/13/4
f 3/4/2 4/20/2 34/19/2 33/68/2
f 33/68/2 34/19/2 35/94/2 32/69/2
f 32/69/2 35/92/2 36/6/2 31/5/2
