# Blender v2.79 (sub 0) OBJ File: 'Water.blend'
# www.blender.org
g Cube.030_Cube.027
v -0.971473 0.000000 0.971474
v -0.971473 0.053776 0.971474
v -0.971473 0.000000 -0.971474
v -0.971473 0.053776 -0.971474
v 0.971473 0.000000 0.971474
v 0.971473 0.053776 0.971474
v 0.971473 0.000000 -0.971474
v 0.971473 0.053776 -0.971474
v 0.582884 0.000000 -0.971474
v 0.194295 0.000000 -0.971474
v -0.194295 0.000000 -0.971474
v -0.582884 0.000000 -0.971474
v -0.582884 0.084311 -0.971474
v -0.194295 0.070793 -0.971474
v 0.194295 0.052769 -0.971474
v 0.582884 0.070793 -0.971474
v -0.582884 0.000000 0.971474
v -0.194295 0.000000 0.971474
v 0.194295 0.000000 0.971474
v 0.582884 0.000000 0.971474
v 0.582884 0.070793 0.971474
v 0.194295 0.052769 0.971474
v -0.194295 0.070793 0.971474
v -0.582884 0.084311 0.971474
v -0.971473 0.000000 -0.582884
v -0.971473 0.000000 -0.194295
v -0.971473 0.000000 0.194295
v -0.971473 0.000000 0.582884
v -0.971473 0.052769 0.582884
v -0.971473 0.075299 0.194295
v -0.971473 0.102336 -0.194295
v -0.971473 0.057275 -0.582884
v 0.971473 0.000000 0.582884
v 0.971473 0.000000 0.194295
v 0.971473 0.000000 -0.194295
v 0.971473 0.000000 -0.582884
v 0.971473 0.057275 -0.582884
v 0.971473 0.102336 -0.194295
v 0.971473 0.075299 0.194295
v 0.971473 0.052769 0.582884
v 0.582884 0.052769 -0.582884
v 0.582884 0.106842 -0.194295
v 0.582884 0.061781 0.194295
v 0.582884 0.077671 0.582884
v 0.194295 0.070793 -0.582884
v 0.194295 0.057275 -0.194295
v 0.194295 0.090477 0.194295
v 0.194295 0.057275 0.582884
v -0.194295 0.061781 -0.582884
v -0.194295 0.129372 -0.194295
v -0.194295 0.075299 0.194295
v -0.194295 0.111348 0.582884
v -0.582884 0.084311 -0.582884
v -0.582884 0.070793 -0.194295
v -0.582884 0.066287 0.194295
v -0.582884 0.066287 0.582884
v -0.582884 0.000000 -0.582884
v -0.582884 0.000000 -0.194295
v -0.582884 0.000000 0.194295
v -0.582884 0.000000 0.582884
v -0.194295 0.000000 -0.582884
v -0.194295 0.000000 -0.194295
v -0.194295 0.000000 0.194295
v -0.194295 0.000000 0.582884
v 0.194295 0.000000 -0.582884
v 0.194295 0.000000 -0.194295
v 0.194295 0.000000 0.194295
v 0.194295 0.000000 0.582884
v 0.582884 0.000000 -0.582884
v 0.582884 0.000000 -0.194295
v 0.582884 0.000000 0.194295
v 0.582884 0.000000 0.582884
vt 0.514655 0.119814
vt 0.500976 0.120306
vt 0.499290 0.026658
vt 0.512241 0.026322
vt 0.129277 0.011753
vt 0.129498 0.028531
vt 0.037353 0.028062
vt 0.036866 0.015274
vt 0.026316 0.397800
vt 0.038965 0.397333
vt 0.041553 0.490547
vt 0.028774 0.490875
vt 0.410140 0.505405
vt 0.409649 0.485504
vt 0.501576 0.487055
vt 0.502349 0.499815
vt 0.887820 0.396200
vt 0.981261 0.396518
vt 0.980889 0.489953
vt 0.887455 0.489582
vt 0.409332 0.394310
vt 0.502324 0.393692
vt 0.132045 0.396683
vt 0.132650 0.487720
vt 0.224536 0.396551
vt 0.225070 0.489815
vt 0.317187 0.395418
vt 0.318276 0.487645
vt 0.514985 0.393888
vt 0.608250 0.394884
vt 0.607521 0.487990
vt 0.514366 0.487134
vt 0.701301 0.395491
vt 0.700755 0.488668
vt 0.794486 0.395885
vt 0.794069 0.489174
vt 0.041397 0.503185
vt 0.132722 0.504310
vt 0.225069 0.502449
vt 0.318001 0.504376
vt 0.499918 0.013956
vt 0.407779 0.029302
vt 0.408131 0.009420
vt 0.316329 0.027320
vt 0.316015 0.010565
vt 0.222845 0.025490
vt 0.222763 0.012765
vt 0.793968 0.022270
vt 0.887806 0.021955
vt 0.888044 0.115733
vt 0.794447 0.116000
vt 0.888160 0.209350
vt 0.794759 0.209451
vt 0.888077 0.302813
vt 0.794755 0.302680
vt 0.700084 0.022914
vt 0.701023 0.116553
vt 0.701689 0.209736
vt 0.701702 0.302553
vt 0.606150 0.024177
vt 0.607853 0.117620
vt 0.609320 0.210278
vt 0.609087 0.302275
vt 0.518882 0.211128
vt 0.517164 0.301329
vt 0.407392 0.120048
vt 0.315498 0.119584
vt 0.406687 0.211248
vt 0.315720 0.211812
vt 0.407920 0.302439
vt 0.316053 0.303468
vt 0.222933 0.119397
vt 0.223347 0.211931
vt 0.224110 0.304092
vt 0.130400 0.120209
vt 0.131261 0.213013
vt 0.132084 0.304524
vt 0.036854 0.121417
vt 0.042051 0.213192
vt 0.039735 0.304185
vt 0.495580 0.211473
vt 0.499522 0.300925
vt 0.981628 0.021789
vt 0.981768 0.115622
vt 0.981762 0.209384
vt 0.981576 0.303013
vt 0.024473 0.027881
vt 0.023163 0.120955
vt 0.018232 0.213062
vt 0.021924 0.304973
vn -1.0000 0.0000 0.0000
vn -0.0000 0.0000 -1.0000
vn 1.0000 0.0000 0.0000
vn 0.0000 0.0000 1.0000
vn 0.0000 -1.0000 0.0000
vn -0.0566 0.9981 -0.0244
vn 0.0539 0.9985 0.0075
vn -0.0494 0.9987 0.0146
vn 0.0922 0.9941 0.0576
vn -0.0405 0.9988 0.0290
vn 0.0463 0.9989 0.0116
vn -0.0462 0.9965 -0.0693
vn -0.0864 0.9934 0.0749
vn -0.0693 0.9965 -0.0462
vn 0.0116 0.9999 -0.0116
vn 0.0807 0.9943 -0.0692
vn 0.0730 0.9970 0.0268
vn 0.0500 0.9987 -0.0037
vn -0.0000 1.0000 -0.0000
vn -0.0405 0.9978 -0.0521
vn -0.0268 0.9995 0.0153
vn 0.0107 0.9997 0.0223
vn 0.0161 0.9997 0.0187
vn 0.0000 0.9920 -0.1265
vn -0.0115 0.9957 0.0924
vn 0.0146 0.9999 0.0085
vn -0.0739 0.9973 -0.0045
vn 0.0058 0.9992 -0.0406
vn 0.0521 0.9978 0.0405
vn -0.0058 0.9996 0.0290
s off
f 25/1/1 32/2/1 4/3/1 3/4/1
f 9/5/2 16/6/2 8/7/2 7/8/2
f 33/9/3 40/10/3 6/11/3 5/12/3
f 17/13/4 24/14/4 2/15/4 1/16/4
f 72/17/5 33/18/5 5/19/5 20/20/5
f 56/21/6 29/22/6 2/15/6 24/14/6
f 40/10/7 44/23/7 21/24/7 6/11/7
f 44/23/8 48/25/8 22/26/8 21/24/8
f 48/25/9 52/27/9 23/28/9 22/26/9
f 52/27/10 56/21/10 24/14/10 23/28/10
f 28/29/5 60/30/5 17/31/5 1/32/5
f 60/30/5 64/33/5 18/34/5 17/31/5
f 64/33/5 68/35/5 19/36/5 18/34/5
f 68/35/5 72/17/5 20/20/5 19/36/5
f 5/37/4 6/11/4 21/24/4 20/38/4
f 20/38/4 21/24/4 22/26/4 19/39/4
f 19/39/4 22/26/4 23/28/4 18/40/4
f 18/40/4 23/28/4 24/14/4 17/13/4
f 3/41/2 4/3/2 13/42/2 12/43/2
f 12/43/2 13/42/2 14/44/2 11/45/2
f 11/45/2 14/44/2 15/46/2 10/47/2
f 10/47/2 15/46/2 16/6/2 9/5/2
f 10/48/5 9/49/5 69/50/5 65/51/5
f 65/51/5 69/50/5 70/52/5 66/53/5
f 66/53/5 70/52/5 71/54/5 67/55/5
f 67/55/5 71/54/5 72/17/5 68/35/5
f 11/56/5 10/48/5 65/51/5 61/57/5
f 61/57/5 65/51/5 66/53/5 62/58/5
f 62/58/5 66/53/5 67/55/5 63/59/5
f 63/59/5 67/55/5 68/35/5 64/33/5
f 12/60/5 11/56/5 61/57/5 57/61/5
f 57/61/5 61/57/5 62/58/5 58/62/5
f 58/62/5 62/58/5 63/59/5 59/63/5
f 59/63/5 63/59/5 64/33/5 60/30/5
f 3/4/5 12/60/5 57/61/5 25/1/5
f 25/1/5 57/61/5 58/62/5 26/64/5
f 26/64/5 58/62/5 59/63/5 27/65/5
f 27/65/5 59/63/5 60/30/5 28/29/5
f 14/44/11 13/42/11 53/66/11 49/67/11
f 49/67/12 53/66/12 54/68/12 50/69/12
f 50/69/13 54/68/13 55/70/13 51/71/13
f 51/71/14 55/70/14 56/21/14 52/27/14
f 15/46/15 14/44/15 49/67/15 45/72/15
f 45/72/16 49/67/16 50/69/16 46/73/16
f 46/73/17 50/69/17 51/71/17 47/74/17
f 47/74/18 51/71/18 52/27/18 48/25/18
f 16/6/19 15/46/19 45/72/19 41/75/19
f 41/75/20 45/72/20 46/73/20 42/76/20
f 42/76/21 46/73/21 47/74/21 43/77/21
f 43/77/22 47/74/22 48/25/22 44/23/22
f 8/7/23 16/6/23 41/75/23 37/78/23
f 37/78/24 41/75/24 42/76/24 38/79/24
f 38/79/25 42/76/25 43/77/25 39/80/25
f 39/80/26 43/77/26 44/23/26 40/10/26
f 13/42/27 4/3/27 32/2/27 53/66/27
f 53/66/28 32/2/28 31/81/28 54/68/28
f 54/68/29 31/81/29 30/82/29 55/70/29
f 55/70/30 30/82/30 29/22/30 56/21/30
f 9/49/5 7/83/5 36/84/5 69/50/5
f 69/50/5 36/84/5 35/85/5 70/52/5
f 70/52/5 35/85/5 34/86/5 71/54/5
f 71/54/5 34/86/5 33/18/5 72/17/5
f 7/87/3 8/7/3 37/78/3 36/88/3
f 36/88/3 37/78/3 38/79/3 35/89/3
f 35/89/3 38/79/3 39/80/3 34/90/3
f 34/90/3 39/80/3 40/10/3 33/9/3
f 1/32/1 2/15/1 29/22/1 28/29/1
f 28/29/1 29/22/1 30/82/1 27/65/1
f 27/65/1 30/82/1 31/81/1 26/64/1
f 26/64/1 31/81/1 32/2/1 25/1/1
